
                <svg id="trend-chart" width="660" height="400" title="Stack Overflow Trends Chart" version="1.1" xmlns="http://www.w3.org/2000/svg"><g></g><g class="chart-area" transform="translate(100, 20)"><g transform="translate(0,300)" fill="none" font-size="10" font-family="sans-serif" text-anchor="middle"><path class="domain" stroke="#000" d="M0.5,6V0.5H410.5V6"></path><g class="tick" opacity="1" transform="translate(19.8253027909426,0)"><line stroke="#000" y2="6" x1="0.5" x2="0.5"></line><text fill="#000" y="9" x="0.5" dy="0.71em" style="font-size: 12px;">2009</text></g><g class="tick" opacity="1" transform="translate(67.1080832016851,0)"><line stroke="#000" y2="6" x1="0.5" x2="0.5"></line><text fill="#000" y="9" x="0.5" dy="0.71em" style="font-size: 12px;">2010</text></g><g class="tick" opacity="1" transform="translate(114.39086361242761,0)"><line stroke="#000" y2="6" x1="0.5" x2="0.5"></line><text fill="#000" y="9" x="0.5" dy="0.71em" style="font-size: 12px;">2011</text></g><g class="tick" opacity="1" transform="translate(161.6736440231701,0)"><line stroke="#000" y2="6" x1="0.5" x2="0.5"></line><text fill="#000" y="9" x="0.5" dy="0.71em" style="font-size: 12px;">2012</text></g><g class="tick" opacity="1" transform="translate(209.08596629805163,0)"><line stroke="#000" y2="6" x1="0.5" x2="0.5"></line><text fill="#000" y="9" x="0.5" dy="0.71em" style="font-size: 12px;">2013</text></g><g class="tick" opacity="1" transform="translate(256.3687467087941,0)"><line stroke="#000" y2="6" x1="0.5" x2="0.5"></line><text fill="#000" y="9" x="0.5" dy="0.71em" style="font-size: 12px;">2014</text></g><g class="tick" opacity="1" transform="translate(303.6515271195366,0)"><line stroke="#000" y2="6" x1="0.5" x2="0.5"></line><text fill="#000" y="9" x="0.5" dy="0.71em" style="font-size: 12px;">2015</text></g><g class="tick" opacity="1" transform="translate(350.93430753027906,0)"><line stroke="#000" y2="6" x1="0.5" x2="0.5"></line><text fill="#000" y="9" x="0.5" dy="0.71em" style="font-size: 12px;">2016</text></g><g class="tick" opacity="1" transform="translate(398.3466298051606,0)"><line stroke="#000" y2="6" x1="0.5" x2="0.5"></line><text fill="#000" y="9" x="0.5" dy="0.71em" style="font-size: 12px;">2017</text></g></g><g class="grid-lines" transform="translate(0,300)" fill="none" font-size="10" font-family="sans-serif" text-anchor="middle"><path class="domain" stroke="#000" d="M0.5,-300V0.5H410.5V-300"></path><g class="tick" opacity="1" transform="translate(19.8253027909426,0)"><line stroke="#000" y2="-300" x1="0.5" x2="0.5" style="stroke: #ccc; fill: none;"></line></g><g class="tick" opacity="1" transform="translate(67.1080832016851,0)"><line stroke="#000" y2="-300" x1="0.5" x2="0.5" style="stroke: #ccc; fill: none;"></line></g><g class="tick" opacity="1" transform="translate(114.39086361242761,0)"><line stroke="#000" y2="-300" x1="0.5" x2="0.5" style="stroke: #ccc; fill: none;"></line></g><g class="tick" opacity="1" transform="translate(161.6736440231701,0)"><line stroke="#000" y2="-300" x1="0.5" x2="0.5" style="stroke: #ccc; fill: none;"></line></g><g class="tick" opacity="1" transform="translate(209.08596629805163,0)"><line stroke="#000" y2="-300" x1="0.5" x2="0.5" style="stroke: #ccc; fill: none;"></line></g><g class="tick" opacity="1" transform="translate(256.3687467087941,0)"><line stroke="#000" y2="-300" x1="0.5" x2="0.5" style="stroke: #ccc; fill: none;"></line></g><g class="tick" opacity="1" transform="translate(303.6515271195366,0)"><line stroke="#000" y2="-300" x1="0.5" x2="0.5" style="stroke: #ccc; fill: none;"></line></g><g class="tick" opacity="1" transform="translate(350.93430753027906,0)"><line stroke="#000" y2="-300" x1="0.5" x2="0.5" style="stroke: #ccc; fill: none;"></line></g><g class="tick" opacity="1" transform="translate(398.3466298051606,0)"><line stroke="#000" y2="-300" x1="0.5" x2="0.5" style="stroke: #ccc; fill: none;"></line></g></g><text x="205" y="360" class="axis-label x-axis-label" style="text-anchor: middle; font-weight: bold;">Year</text><g fill="none" font-size="10" font-family="sans-serif" text-anchor="end"><path class="domain" stroke="#000" d="M-6,300.5H0.5V0.5H-6"></path><g class="tick" opacity="1" transform="translate(0,300)"><line stroke="#000" x2="-6" y1="0.5" y2="0.5"></line><text fill="#000" x="-9" y="0.5" dy="0.32em" style="font-size: 12px;">0.00%</text></g><g class="tick" opacity="1" transform="translate(0,275)"><line stroke="#000" x2="-6" y1="0.5" y2="0.5"></line><text fill="#000" x="-9" y="0.5" dy="0.32em" style="font-size: 12px;">0.05%</text></g><g class="tick" opacity="1" transform="translate(0,250)"><line stroke="#000" x2="-6" y1="0.5" y2="0.5"></line><text fill="#000" x="-9" y="0.5" dy="0.32em" style="font-size: 12px;">0.10%</text></g><g class="tick" opacity="1" transform="translate(0,225)"><line stroke="#000" x2="-6" y1="0.5" y2="0.5"></line><text fill="#000" x="-9" y="0.5" dy="0.32em" style="font-size: 12px;">0.15%</text></g><g class="tick" opacity="1" transform="translate(0,200)"><line stroke="#000" x2="-6" y1="0.5" y2="0.5"></line><text fill="#000" x="-9" y="0.5" dy="0.32em" style="font-size: 12px;">0.20%</text></g><g class="tick" opacity="1" transform="translate(0,175)"><line stroke="#000" x2="-6" y1="0.5" y2="0.5"></line><text fill="#000" x="-9" y="0.5" dy="0.32em" style="font-size: 12px;">0.25%</text></g><g class="tick" opacity="1" transform="translate(0,150)"><line stroke="#000" x2="-6" y1="0.5" y2="0.5"></line><text fill="#000" x="-9" y="0.5" dy="0.32em" style="font-size: 12px;">0.30%</text></g><g class="tick" opacity="1" transform="translate(0,125)"><line stroke="#000" x2="-6" y1="0.5" y2="0.5"></line><text fill="#000" x="-9" y="0.5" dy="0.32em" style="font-size: 12px;">0.35%</text></g><g class="tick" opacity="1" transform="translate(0,100)"><line stroke="#000" x2="-6" y1="0.5" y2="0.5"></line><text fill="#000" x="-9" y="0.5" dy="0.32em" style="font-size: 12px;">0.40%</text></g><g class="tick" opacity="1" transform="translate(0,75.00000000000003)"><line stroke="#000" x2="-6" y1="0.5" y2="0.5"></line><text fill="#000" x="-9" y="0.5" dy="0.32em" style="font-size: 12px;">0.45%</text></g><g class="tick" opacity="1" transform="translate(0,50)"><line stroke="#000" x2="-6" y1="0.5" y2="0.5"></line><text fill="#000" x="-9" y="0.5" dy="0.32em" style="font-size: 12px;">0.50%</text></g><g class="tick" opacity="1" transform="translate(0,25)"><line stroke="#000" x2="-6" y1="0.5" y2="0.5"></line><text fill="#000" x="-9" y="0.5" dy="0.32em" style="font-size: 12px;">0.55%</text></g><g class="tick" opacity="1" transform="translate(0,0)"><line stroke="#000" x2="-6" y1="0.5" y2="0.5"></line><text fill="#000" x="-9" y="0.5" dy="0.32em" style="font-size: 12px;">0.60%</text></g></g><g class="grid-lines" fill="none" font-size="10" font-family="sans-serif" text-anchor="end"><path class="domain" stroke="#000" d="M410,300.5H0.5V0.5H410"></path><g class="tick" opacity="1" transform="translate(0,300)"><line stroke="#000" x2="410" y1="0.5" y2="0.5" style="stroke: #ccc; fill: none;"></line></g><g class="tick" opacity="1" transform="translate(0,275)"><line stroke="#000" x2="410" y1="0.5" y2="0.5" style="stroke: #ccc; fill: none;"></line></g><g class="tick" opacity="1" transform="translate(0,250)"><line stroke="#000" x2="410" y1="0.5" y2="0.5" style="stroke: #ccc; fill: none;"></line></g><g class="tick" opacity="1" transform="translate(0,225)"><line stroke="#000" x2="410" y1="0.5" y2="0.5" style="stroke: #ccc; fill: none;"></line></g><g class="tick" opacity="1" transform="translate(0,200)"><line stroke="#000" x2="410" y1="0.5" y2="0.5" style="stroke: #ccc; fill: none;"></line></g><g class="tick" opacity="1" transform="translate(0,175)"><line stroke="#000" x2="410" y1="0.5" y2="0.5" style="stroke: #ccc; fill: none;"></line></g><g class="tick" opacity="1" transform="translate(0,150)"><line stroke="#000" x2="410" y1="0.5" y2="0.5" style="stroke: #ccc; fill: none;"></line></g><g class="tick" opacity="1" transform="translate(0,125)"><line stroke="#000" x2="410" y1="0.5" y2="0.5" style="stroke: #ccc; fill: none;"></line></g><g class="tick" opacity="1" transform="translate(0,100)"><line stroke="#000" x2="410" y1="0.5" y2="0.5" style="stroke: #ccc; fill: none;"></line></g><g class="tick" opacity="1" transform="translate(0,75.00000000000003)"><line stroke="#000" x2="410" y1="0.5" y2="0.5" style="stroke: #ccc; fill: none;"></line></g><g class="tick" opacity="1" transform="translate(0,50)"><line stroke="#000" x2="410" y1="0.5" y2="0.5" style="stroke: #ccc; fill: none;"></line></g><g class="tick" opacity="1" transform="translate(0,25)"><line stroke="#000" x2="410" y1="0.5" y2="0.5" style="stroke: #ccc; fill: none;"></line></g><g class="tick" opacity="1" transform="translate(0,0)"><line stroke="#000" x2="410" y1="0.5" y2="0.5" style="stroke: #ccc; fill: none;"></line></g></g><g class="lines"><path class="line" d="M4.015797788309636,300L7.902053712480252,300L11.92324907846235,300L15.809505002632964,300L19.8253027909426,300L23.841100579252238,300L27.468272775144815,300L31.47867298578199,300L35.36492890995261,300L39.380726698262244,300L43.266982622432856,300L47.2827804107425,300L51.29857819905213,300L55.18483412322275,300L59.20602948920484,300L63.092285413375464,300L67.1080832016851,300L71.12388098999473,300L74.7510531858873,300L78.76145339652449,300L82.6477093206951,300L86.66350710900474,300L90.54976303317535,300L94.565560821485,300L98.58135860979462,300L102.46761453396525,300L106.48880989994736,300L110.37506582411797,300L114.39086361242761,300L118.40666140073722,300L122.03383359662979,300L126.04423380726698,300L129.9304897314376,300L133.94628751974724,300L137.83254344391784,300L141.84834123222748,300L145.86413902053712,300L149.75039494470775,300L153.77159031068982,300L157.65784623486047,300L161.6736440231701,300L165.68944181147972,300L169.4461558715113,300L173.4565560821485,300L177.34281200631912,300L181.35860979462876,300L185.24486571879936,300L189.260663507109,300L193.27646129541864,300L197.16271721958924,300L201.18391258557136,300L205.07016850974196,300L209.08596629805163,300L213.10176408636124,300L216.72893628225378,299.7L220.739336492891,300L224.6255924170616,300L228.64139020537124,300L232.5276461295419,300L236.5434439178515,300L240.55924170616112,298.8L244.44549763033177,296.3L248.46669299631387,293.6L252.35294892048447,289.65L256.3687467087941,288.6L260.3845444971037,291.7L264.0117166929963,284.5L268.0221169036335,277.4L271.9083728278041,273.45L275.9241706161137,261.35L279.81042654028437,258.45L283.826224328594,255.55L287.8420221169036,248.6L291.72827804107425,245L295.74947340705637,245.25L299.63572933122697,237.5L303.6515271195366,227.65L307.66732490784625,229.15L311.2944971037388,221.5L315.304897314376,213.2L319.19115323854663,212.05L323.20695102685625,199.85000000000002L327.09320695102684,199.90000000000003L331.1090047393365,194.65L335.1248025276461,189L339.0110584518167,183.95L343.03225381779885,170.04999999999998L346.91850974196944,177.7L350.93430753027906,157.50000000000003L354.9501053185887,161.49999999999997L358.70681937862037,153.7L362.7172195892575,153.25000000000003L366.6034755134281,146.25L370.6192733017378,135.60000000000002L374.5055292259084,110.20000000000002L378.521327014218,70.15L382.53712480252767,90.1L386.42338072669827,87.35L390.44457609268034,87.54999999999998L394.330832016851,53.849999999999994L398.3466298051606,60.69999999999999L402.3624275934703,39.64999999999998L405.98959978936284,39.30000000000001L410,36.049999999999955" data-legend="spring-boot" style="stroke: rgb(31, 119, 180); fill: none;"></path><path class="line" d="M4.015797788309636,300L7.902053712480252,300L11.92324907846235,300L15.809505002632964,300L19.8253027909426,300L23.841100579252238,300L27.468272775144815,300L31.47867298578199,300L35.36492890995261,300L39.380726698262244,300L43.266982622432856,300L47.2827804107425,300L51.29857819905213,300L55.18483412322275,300L59.20602948920484,300L63.092285413375464,300L67.1080832016851,300L71.12388098999473,300L74.7510531858873,300L78.76145339652449,300L82.6477093206951,300L86.66350710900474,300L90.54976303317535,300L94.565560821485,300L98.58135860979462,300L102.46761453396525,300L106.48880989994736,300L110.37506582411797,300L114.39086361242761,300L118.40666140073722,300L122.03383359662979,300L126.04423380726698,300L129.9304897314376,300L133.94628751974724,300L137.83254344391784,300L141.84834123222748,300L145.86413902053712,300L149.75039494470775,300L153.77159031068982,300L157.65784623486047,300L161.6736440231701,300L165.68944181147972,300L169.4461558715113,300L173.4565560821485,300L177.34281200631912,299.65L181.35860979462876,300L185.24486571879936,300L189.260663507109,300L193.27646129541864,300L197.16271721958924,300L201.18391258557136,300L205.07016850974196,300L209.08596629805163,300L213.10176408636124,300L216.72893628225378,298.9L220.739336492891,297.75L224.6255924170616,298.85L228.64139020537124,295.4L232.5276461295419,295.05L236.5434439178515,293.1L240.55924170616112,288.5L244.44549763033177,288.35L248.46669299631387,288.65L252.35294892048447,287.9L256.3687467087941,280.35L260.3845444971037,279.7L264.0117166929963,276.75L268.0221169036335,282.2L271.9083728278041,274.3L275.9241706161137,258.05L279.81042654028437,251.55L283.826224328594,237.05L287.8420221169036,242.10000000000002L291.72827804107425,228.60000000000002L295.74947340705637,225.35000000000002L299.63572933122697,203.60000000000002L303.6515271195366,202.39999999999998L307.66732490784625,203.60000000000002L311.2944971037388,204.25L315.304897314376,193.85L319.19115323854663,188.4L323.20695102685625,181.65L327.09320695102684,156.9L331.1090047393365,166.85000000000002L335.1248025276461,154.1L339.0110584518167,149.59999999999997L343.03225381779885,134.4L346.91850974196944,125.05000000000001L350.93430753027906,123.85000000000002L354.9501053185887,112.54999999999998L358.70681937862037,120.1L362.7172195892575,110.20000000000002L366.6034755134281,112.04999999999998L370.6192733017378,95.15L374.5055292259084,85.35L378.521327014218,60.69999999999999L382.53712480252767,76.10000000000005L386.42338072669827,55.75000000000003L390.44457609268034,72.74999999999997L394.330832016851,51.75000000000003L398.3466298051606,22.600000000000023L402.3624275934703,34.55000000000001L405.98959978936284,63.75L410,65.10000000000002" data-legend="docker" style="stroke: rgb(255, 127, 14); fill: none;"></path></g></g><g transform="translate(20, 150)"><text transform="rotate(-90)" x="-50" y="0" dy="1em" class="axis-label y-axis-label" style="text-anchor: middle; font-weight: bold;">% of Stack Overflow questions that month</text></g><g class="legend" transform="translate(530, 30)" style="font-size: 12px;"><text class="legend-title" style="font-weight: bold;">Tag</text><g class="legend-items" transform="translate(0,20)"><text y="0em" x="1em">docker</text><text y="1em" x="1em">spring-boot</text><circle cy="-0.25em" cx="0" r="0.4em" style="fill: rgb(255, 127, 14);"></circle><circle cy="0.75em" cx="0" r="0.4em" style="fill: rgb(31, 119, 180);"></circle></g><rect class="legend-box"></rect></g></svg>
            